#!OML:ASF F:\VICON\USERDATA\INSTALL\rory3\rory3.ASF
:FULLY-SPECIFIED
:DEGREES
305
root 0.938685 17.8804 25.2672 -4.97686 -2.7185 0.898805
lowerback 12.0234 -0.196941 -1.64868
upperback 0.240827 -0.400038 1.36053
thorax -6.47899 -0.123223 2.43591
lowerneck -17.6885 -2.34334 -1.88896
upperneck 23.821 -2.63298 -0.483932
head 10.5979 -1.44291 -0.231264
rclavicle -1.70831e-015 -1.66979e-014
rhumerus -29.7919 -11.6614 -80.7722
rradius 30.2794
rwrist 2.26684
rhand -18.8385 20.062
rfingers 7.12502
rthumb 7.46099 -9.78647
lclavicle -1.70831e-015 -1.66979e-014
lhumerus -30.8498 -6.04322 81.4138
lradius 30.6575
lwrist 10.2407
lhand -26.2172 23.0749
lfingers 7.12502
lthumb 0.336009 53.0543
rfemur -28.6801 0.0351326 21.2004
rtibia 53.8825
rfoot -10.252 -9.11435
rtoes -3.40809
lfemur 2.32007 -2.98898 -27.0089
ltibia 24.5759
lfoot -16.2722 2.25998
ltoes 0.371284
306
root 0.928369 17.8789 25.4235 -4.77947 -2.87038 0.457661
lowerback 12.1463 -0.2167 -1.34588
upperback 0.0784347 -0.373167 1.52774
thorax -6.72307 -0.11235 2.4402
lowerneck -17.5104 -2.33976 -1.81639
upperneck 23.8262 -2.62585 -0.590677
head 10.5628 -1.44682 -0.278195
rclavicle 3.0998e-015 -3.18055e-015
rhumerus -30.1727 -11.9565 -80.595
rradius 30.1045
rwrist 2.11651
rhand -19.0723 20.9395
rfingers 7.12502
rthumb 7.23539 -8.91677
lclavicle 3.0998e-015 -3.18055e-015
lhumerus -30.6905 -6.49661 81.2927
lradius 31.0201
lwrist 10.475
lhand -26.4105 22.0082
lfingers 7.12502
lthumb 0.149282 51.9879
rfemur -28.9891 0.525359 21.7488
rtibia 51.1235
rfoot -9.70461 -9.77204
rtoes -4.52331
lfemur 2.96378 -2.95724 -26.5422
ltibia 24.0117
lfoot -16.5244 2.32385
ltoes 0.982126
307
root 0.922038 17.8753 25.5826 -4.52176 -2.84128 0.606732
lowerback 12.0745 -0.241743 -1.55869
upperback -0.0344848 -0.436095 1.51696
thorax -6.79823 -0.134175 2.56088
lowerneck -17.9055 -2.41483 -1.72373
upperneck 24.2331 -2.70975 -0.746864
head 10.7851 -1.49622 -0.3713
rclavicle 3.68373e-015 5.56597e-015
rhumerus -30.4269 -12.2454 -80.4192
rradius 30.2531
rwrist 2.44433
rhand -18.8208 20.4328
rfingers 7.12502
rthumb 7.47809 -9.415
lclavicle 3.68373e-015 5.56597e-015
lhumerus -30.3425 -6.84343 81.1327
lradius 31.2907
lwrist 10.7879
lhand -26.7173 22.4283
lfingers 7.12502
lthumb -0.147011 52.408
rfemur -29.333 0.812146 21.5611
rtibia 48.2831
rfoot -8.97613 -10.3032
rtoes -4.89734
lfemur 3.43992 -2.87382 -26.7071
ltibia 23.5331
lfoot -16.6346 2.23841
ltoes 1.13353
308
root 0.915905 17.8739 25.7541 -4.39621 -2.6464 0.74561
lowerback 11.8445 -0.311385 -1.72253
upperback -0.00573668 -0.549483 1.51407
thorax -6.63018 -0.186938 2.66642
lowerneck -17.7958 -2.45816 -1.84672
upperneck 24.0974 -2.76899 -0.627175
head 10.7182 -1.5197 -0.313353
rclavicle -1.0958e-014 -7.95139e-015
rhumerus -30.5978 -12.2376 -80.3316
rradius 30.5721
rwrist 2.8362
rhand -18.6334 20.1545
rfingers 7.12502
rthumb 7.65898 -9.68679
lclavicle -1.0958e-014 -7.95139e-015
lhumerus -29.8388 -7.26234 81.0268
lradius 31.6105
lwrist 10.8407
lhand -26.8359 23.9591
lfingers 7.12502
lthumb -0.261638 53.9387
rfemur -29.3533 1.1162 21.3118
rtibia 45.3886
rfoot -8.32801 -10.7265
rtoes -4.32455
lfemur 4.24008 -2.69723 -26.8217
ltibia 22.8388
lfoot -16.6296 1.98345
ltoes 0.11405
309
root 0.907014 17.8682 25.9352 -4.36266 -2.58707 0.654465
lowerback 11.6309 -0.34629 -1.64757
upperback -0.0321505 -0.580333 1.55813
thorax -6.5362 -0.204897 2.67256
lowerneck -17.2363 -2.43255 -2.0376
upperneck 23.8324 -2.74517 -0.422303
head 10.5197 -1.50188 -0.194475
rclavicle -7.14382e-016 1.07344e-014
rhumerus -31.0736 -12.4149 -80.0883
rradius 30.6048
rwrist 2.89985
rhand -18.3801 19.5215
rfingers 7.12502
rthumb 7.90353 -10.3107
lclavicle -7.14382e-016 1.07344e-014
lhumerus -29.5848 -7.54768 80.8977
lradius 31.8517
lwrist 10.7427
lhand -26.122 23.2678
lfingers 7.12502
lthumb 0.4279 53.2471
rfemur -29.1955 1.5743 21.3373
rtibia 42.4335
rfoot -7.51053 -11.0964
rtoes -5.21166
lfemur 5.39242 -2.50191 -26.6918
ltibia 21.867
lfoot -16.79 1.95424
ltoes -1.12836
310
root 0.902406 17.8668 26.1148 -4.34886 -2.59014 0.807794
lowerback 11.583 -0.377571 -1.81731
upperback -0.0343876 -0.646655 1.52456
thorax -6.50633 -0.232889 2.74364
lowerneck -17.5591 -2.39496 -1.96196
upperneck 24.1808 -2.68054 -0.522935
head 10.7064 -1.47796 -0.241584
rclavicle -6.47914e-015 -6.36111e-015
rhumerus -31.2521 -12.8036 -79.8607
rradius 29.9276
rwrist 2.56316
rhand -18.3152 19.8676
rfingers 7.12502
rthumb 7.96615 -9.96228
lclavicle -6.47914e-015 -6.36111e-015
lhumerus -29.2773 -7.84272 80.7147
lradius 32.102
lwrist 10.9307
lhand -26.6976 21.8121
lfingers 7.12502
lthumb -0.128018 51.7918
rfemur -29.0322 1.79476 21.1164
rtibia 39.4139
rfoot -6.84608 -11.2287
rtoes -6.40535
lfemur 6.58125 -2.36527 -26.8971
ltibia 20.8372
lfoot -16.8461 1.94836
ltoes -1.48939
311
root 0.894041 17.8615 26.2833 -4.17263 -2.42911 1.15411
lowerback 11.5151 -0.435351 -2.20197
upperback -0.0277134 -0.779939 1.44015
thorax -6.44928 -0.288238 2.89334
lowerneck -18.1115 -2.4113 -1.85835
upperneck 24.464 -2.69642 -0.615989
head 10.915 -1.48653 -0.30509
rclavicle -5.31749e-015 1.35174e-014
rhumerus -31.3421 -12.7914 -79.8344
rradius 30.1317
rwrist 2.73182
rhand -17.899 18.7138
rfingers 7.12502
rthumb 8.36784 -11.1004
lclavicle -5.31749e-015 1.35174e-014
lhumerus -28.624 -8.12556 80.4697
lradius 32.1851
lwrist 11.0948
lhand -28.4587 21.3607
lfingers 7.12502
lthumb -1.82895 51.3326
rfemur -29.0488 1.97945 20.6926
rtibia 36.3688
rfoot -6.42201 -11.617
rtoes -6.34068
lfemur 7.51554 -2.3335 -27.2686
ltibia 19.7758
lfoot -16.8006 1.59964
ltoes -1.19204
312
root 0.884135 17.8532 26.4489 -4.00445 -2.3536 1.17598
lowerback 11.4373 -0.454723 -2.20962
upperback -0.0559058 -0.806817 1.41866
thorax -6.43374 -0.301471 2.8783
lowerneck -18.0657 -2.4558 -1.94578
upperneck 24.378 -2.76145 -0.514542
head 10.8778 -1.51145 -0.261896
rclavicle -1.43622e-014 5.96354e-015
rhumerus -31.5394 -12.9068 -79.7666
rradius 29.8156
rwrist 1.84885
rhand -18.0043 19.8326
rfingers 7.12502
rthumb 8.26623 -9.98565
lclavicle -1.43622e-014 5.96354e-015
lhumerus -28.076 -8.38971 80.2665
lradius 32.2865
lwrist 11.1509
lhand -29.093 22.0375
lfingers 7.12502
lthumb -2.44156 52.0033
rfemur -28.8649 2.59936 20.4731
rtibia 33.3396
rfoot -6.65538 -11.9211
rtoes -4.30316
lfemur 8.43135 -2.28109 -27.2749
ltibia 18.751
lfoot -16.5871 1.34258
ltoes -1.57831
